<svg width="41" height="41" viewBox="0 0 41 41" fill="none" xmlns="http://www.w3.org/2000/svg">
<path d="M35.0833 17.875V37.6667C35.0833 38.2192 34.8638 38.7491 34.4731 39.1398C34.0824 39.5305 33.5525 39.75 33 39.75H3.83333C3.2808 39.75 2.75089 39.5305 2.36019 39.1398C1.96949 38.7491 1.75 38.2192 1.75 37.6667V8.50002C1.75 7.94749 1.96949 7.41758 2.36019 7.02688C2.75089 6.63618 3.2808 6.41669 3.83333 6.41669H22.9625" stroke="#64868E" stroke-width="2.5" stroke-miterlimit="10" stroke-linecap="round" stroke-linejoin="round"/>
<path d="M35.0771 2.0365V10.3698M8 28.323L14.25 19.9584L17.375 23.0834L21.0208 17.3542L28.8333 28.323H8ZM30.9167 6.41671H39.25H30.9167Z" stroke="#64868E" stroke-width="2.5" stroke-miterlimit="10" stroke-linecap="round" stroke-linejoin="round"/>
</svg>
