<svg width="24" height="22" viewBox="0 0 24 22" fill="none" xmlns="http://www.w3.org/2000/svg">
<path fill-rule="evenodd" clip-rule="evenodd" d="M5.94643 3.00088L0 5.98995V7.47667C0 8.37152 0.0987857 9.02424 0.248143 9.11638C0.385071 9.20124 3.07264 7.98452 6.24814 6.40009L12 3.53059L17.7519 6.40009C20.9274 7.98452 23.6149 9.20124 23.7519 9.11638C23.9012 9.02424 24 8.37152 24 7.47645V5.98995L18.0015 2.98909C14.7024 1.33888 11.9781 -0.00640563 11.9479 2.29442e-05C11.9177 0.00645152 9.21707 1.35667 5.94643 3.00088ZM6.69643 7.44495L1.71429 9.94845V15.6399C1.71429 19.7807 1.78436 21.4014 1.97143 21.5885C2.3415 21.9585 21.6585 21.9585 22.0286 21.5885C22.2156 21.4014 22.2857 19.7807 22.2857 15.6399V9.94845L17.2487 7.43274C14.4784 6.04909 12.0919 4.92259 11.9451 4.92924C11.7986 4.93588 9.43671 6.06795 6.69643 7.44495ZM10.8369 10.077C11.3889 10.6869 11.3844 12.1391 10.8291 12.545C10.2718 12.9525 10.1355 12.929 9.52607 12.3195C8.64343 11.4371 8.92071 9.63131 9.93857 9.63131C10.2109 9.63131 10.6151 9.83188 10.8369 10.077ZM14.7782 10.0457C15.1684 10.7747 15.0371 11.7566 14.4739 12.3195C13.8645 12.929 13.7282 12.9525 13.1709 12.545C12.6156 12.1391 12.6111 10.6869 13.1631 10.077C13.6695 9.51731 14.4868 9.50145 14.7782 10.0457ZM7.92021 12.4575C8.41029 12.9834 8.5155 14.3158 8.1 14.7313C7.4235 15.4078 6.33107 14.7686 6.08807 13.5542C5.81057 12.1661 6.99064 11.4596 7.92021 12.4575ZM17.7996 12.4432C18.2991 13.3766 17.55 14.9885 16.6168 14.9885C15.9508 14.9885 15.6429 14.5811 15.6429 13.7004C15.6429 12.2837 17.2219 11.3634 17.7996 12.4432ZM13.236 14.2487C15.5741 15.2254 16.0646 17.51 14.1426 18.4702C13.1361 18.9731 10.8639 18.9731 9.85736 18.4702C7.956 17.5202 8.41779 15.255 10.7158 14.2584C11.6786 13.841 12.2548 13.8386 13.236 14.2487Z" fill="black"/>
</svg>
