<?xml version="1.0" encoding="UTF-8" standalone="no"?>
<svg
   width="31"
   height="30"
   viewBox="0 0 31 30"
   fill="none"
   version="1.1"
   id="svg2117"
   sodipodi:docname="remove-x.svg"
   inkscape:version="1.1.2 (b8e25be833, 2022-02-05)"
   xmlns:inkscape="http://www.inkscape.org/namespaces/inkscape"
   xmlns:sodipodi="http://sodipodi.sourceforge.net/DTD/sodipodi-0.dtd"
   xmlns="http://www.w3.org/2000/svg"
   xmlns:svg="http://www.w3.org/2000/svg">
  <defs
     id="defs2121" />
  <sodipodi:namedview
     id="namedview2119"
     pagecolor="#ffffff"
     bordercolor="#666666"
     borderopacity="1.0"
     inkscape:pageshadow="2"
     inkscape:pageopacity="0.0"
     inkscape:pagecheckerboard="0"
     showgrid="false"
     inkscape:zoom="27.7"
     inkscape:cx="8.3935018"
     inkscape:cy="15.018051"
     inkscape:window-width="1920"
     inkscape:window-height="1017"
     inkscape:window-x="-8"
     inkscape:window-y="-8"
     inkscape:window-maximized="1"
     inkscape:current-layer="svg2117" />
  <ellipse
     style="fill:#f3fbf1;fill-opacity:1"
     id="path2163"
     cx="15.451263"
     cy="14.945848"
     rx="12.527076"
     ry="13.140794" />
  <path
     d="M15.5 1.66669C12.8629 1.66669 10.285 2.44867 8.09236 3.91376C5.89971 5.37884 4.19074 7.46123 3.18157 9.89757C2.1724 12.3339 1.90836 15.0148 2.42283 17.6012C2.9373 20.1876 4.20717 22.5634 6.07187 24.4281C7.93657 26.2928 10.3123 27.5627 12.8988 28.0772C15.4852 28.5916 18.1661 28.3276 20.6024 27.3184C23.0388 26.3092 25.1211 24.6003 26.5862 22.4076C28.0513 20.215 28.8333 17.6371 28.8333 15C28.8333 11.4638 27.4285 8.07241 24.9281 5.57193C22.4276 3.07145 19.0362 1.66669 15.5 1.66669V1.66669ZM22.1666 20.0834C22.3876 20.3044 22.5118 20.6041 22.5118 20.9167C22.5118 21.2292 22.3876 21.529 22.1666 21.75C21.9456 21.971 21.6459 22.0952 21.3333 22.0952C21.0207 22.0952 20.721 21.971 20.5 21.75L15.5 16.75L10.5 21.7667C10.3905 21.8761 10.2606 21.9629 10.1176 22.0222C9.97465 22.0814 9.8214 22.1119 9.66663 22.1119C9.51187 22.1119 9.35862 22.0814 9.21564 22.0222C9.07265 21.9629 8.94273 21.8761 8.8333 21.7667C8.72386 21.6573 8.63705 21.5273 8.57783 21.3843C8.5186 21.2414 8.48812 21.0881 8.48812 20.9334C8.48812 20.7786 8.5186 20.6253 8.57783 20.4824C8.63705 20.3394 8.72386 20.2095 8.8333 20.1L13.8333 15.0667L8.69163 9.88335C8.47062 9.66234 8.34645 9.36258 8.34645 9.05002C8.34645 8.73746 8.47062 8.4377 8.69163 8.21669C8.91265 7.99567 9.2124 7.87151 9.52497 7.87151C9.83753 7.87151 10.1373 7.99567 10.3583 8.21669L15.5 13.4167L20.6416 8.27502C20.7511 8.16559 20.881 8.07878 21.024 8.01955C21.167 7.96033 21.3202 7.92984 21.475 7.92984C21.6297 7.92984 21.783 7.96033 21.926 8.01955C22.0689 8.07878 22.1989 8.16559 22.3083 8.27502C22.4177 8.38446 22.5045 8.51437 22.5638 8.65736C22.623 8.80034 22.6535 8.95359 22.6535 9.10835C22.6535 9.26312 22.623 9.41637 22.5638 9.55935C22.5045 9.70233 22.4177 9.83225 22.3083 9.94169L17.1666 15.0667L22.1666 20.0834Z"
     fill="#FF0000"
     id="path2115" />
</svg>
